<svg width="129" height="32" viewBox="0 0 258 64" fill="none" xmlns="http://www.w3.org/2000/svg">
<path d="M4.2005 32C4.07025 31.3541 4 30.6849 4 30C4 24.4765 8.4765 20 14 20C15.3515 20 16.6328 20.276 17.8048 20.7604C20.4584 15.5834 25.7864 12 32 12C38.2136 12 43.5417 15.5834 46.1926 20.7604C47.3672 20.276 48.6511 20 50 20C55.5235 20 60 24.4765 60 30C60 30.6849 59.9297 31.3541 59.7969 32H63.7969C63.8959 31.3411 64 30.6849 64 30C64 22.2812 57.7188 16 50 16C49.336 16 48.6798 16.0469 48.026 16.1406C44.2918 11.0521 38.3985 8 32 8C25.6015 8 19.711 11.0521 15.974 16.1406C15.3202 16.0469 14.664 16 14 16C6.28125 16 0 22.2812 0 30C0 30.6849 0.10675 31.3411 0.203125 32H4.2005ZM62 36H2C0.895875 36 0 36.8959 0 38C0 39.1041 0.895875 40 2 40H62C63.1041 40 64 39.1041 64 38C64 36.8959 63.1041 36 62 36ZM62 44H2C0.895875 44 0 44.8959 0 46C0 47.1041 0.895875 48 2 48H62C63.1041 48 64 47.1041 64 46C64 44.8959 63.1041 44 62 44ZM62 52H2C0.895875 52 0 52.8959 0 54C0 55.1041 0.895875 56 2 56H62C63.1041 56 64 55.1041 64 54C64 52.8959 63.1041 52 62 52Z" fill="#ffffff"/>
<path d="M95.608 21.8C98.872 21.8 101.44 22.58 103.312 24.14C105.184 25.7 106.12 27.848 106.12 30.584C106.12 33.32 105.184 35.468 103.312 37.028C101.44 38.588 98.872 39.368 95.608 39.368H89.38V47H85.78V21.8H95.608ZM95.5 36.236C97.78 36.236 99.52 35.756 100.72 34.796C101.92 33.812 102.52 32.408 102.52 30.584C102.52 28.76 101.92 27.368 100.72 26.408C99.52 25.424 97.78 24.932 95.5 24.932H89.38V36.236H95.5ZM125.667 47.216C123.771 47.216 122.067 46.796 120.555 45.956C119.043 45.116 117.855 43.964 116.991 42.5C116.151 41.012 115.731 39.332 115.731 37.46C115.731 35.588 116.151 33.92 116.991 32.456C117.855 30.968 119.043 29.816 120.555 29C122.067 28.16 123.771 27.74 125.667 27.74C127.563 27.74 129.255 28.16 130.743 29C132.255 29.816 133.431 30.968 134.271 32.456C135.135 33.92 135.567 35.588 135.567 37.46C135.567 39.332 135.135 41.012 134.271 42.5C133.431 43.964 132.255 45.116 130.743 45.956C129.255 46.796 127.563 47.216 125.667 47.216ZM125.667 44.192C126.891 44.192 127.983 43.916 128.943 43.364C129.927 42.788 130.695 41.996 131.247 40.988C131.799 39.956 132.075 38.78 132.075 37.46C132.075 36.14 131.799 34.976 131.247 33.968C130.695 32.936 129.927 32.144 128.943 31.592C127.983 31.04 126.891 30.764 125.667 30.764C124.443 30.764 123.339 31.04 122.355 31.592C121.395 32.144 120.627 32.936 120.051 33.968C119.499 34.976 119.223 36.14 119.223 37.46C119.223 38.78 119.499 39.956 120.051 40.988C120.627 41.996 121.395 42.788 122.355 43.364C123.339 43.916 124.443 44.192 125.667 44.192ZM165.258 27.92V44.408C165.258 47.744 164.43 50.204 162.774 51.788C161.118 53.396 158.646 54.2 155.358 54.2C153.558 54.2 151.842 53.948 150.21 53.444C148.578 52.964 147.258 52.268 146.25 51.356L147.906 48.692C148.794 49.46 149.886 50.06 151.182 50.492C152.502 50.948 153.858 51.176 155.25 51.176C157.482 51.176 159.126 50.648 160.182 49.592C161.262 48.536 161.802 46.928 161.802 44.768V43.256C160.986 44.24 159.978 44.984 158.778 45.488C157.602 45.968 156.318 46.208 154.926 46.208C153.102 46.208 151.446 45.824 149.958 45.056C148.494 44.264 147.342 43.172 146.502 41.78C145.662 40.364 145.242 38.756 145.242 36.956C145.242 35.156 145.662 33.56 146.502 32.168C147.342 30.752 148.494 29.66 149.958 28.892C151.446 28.124 153.102 27.74 154.926 27.74C156.366 27.74 157.698 28.004 158.922 28.532C160.17 29.06 161.19 29.84 161.982 30.872V27.92H165.258ZM155.322 43.184C156.57 43.184 157.686 42.92 158.67 42.392C159.678 41.864 160.458 41.132 161.01 40.196C161.586 39.236 161.874 38.156 161.874 36.956C161.874 35.108 161.262 33.62 160.038 32.492C158.814 31.34 157.242 30.764 155.322 30.764C153.378 30.764 151.794 31.34 150.57 32.492C149.346 33.62 148.734 35.108 148.734 36.956C148.734 38.156 149.01 39.236 149.562 40.196C150.138 41.132 150.918 41.864 151.902 42.392C152.91 42.92 154.05 43.184 155.322 43.184ZM186.694 47.216C184.798 47.216 183.094 46.796 181.582 45.956C180.07 45.116 178.882 43.964 178.018 42.5C177.178 41.012 176.758 39.332 176.758 37.46C176.758 35.588 177.178 33.92 178.018 32.456C178.882 30.968 180.07 29.816 181.582 29C183.094 28.16 184.798 27.74 186.694 27.74C188.59 27.74 190.282 28.16 191.77 29C193.282 29.816 194.458 30.968 195.298 32.456C196.162 33.92 196.594 35.588 196.594 37.46C196.594 39.332 196.162 41.012 195.298 42.5C194.458 43.964 193.282 45.116 191.77 45.956C190.282 46.796 188.59 47.216 186.694 47.216ZM186.694 44.192C187.918 44.192 189.01 43.916 189.97 43.364C190.954 42.788 191.722 41.996 192.274 40.988C192.826 39.956 193.102 38.78 193.102 37.46C193.102 36.14 192.826 34.976 192.274 33.968C191.722 32.936 190.954 32.144 189.97 31.592C189.01 31.04 187.918 30.764 186.694 30.764C185.47 30.764 184.366 31.04 183.382 31.592C182.422 32.144 181.654 32.936 181.078 33.968C180.526 34.976 180.25 36.14 180.25 37.46C180.25 38.78 180.526 39.956 181.078 40.988C181.654 41.996 182.422 42.788 183.382 43.364C184.366 43.916 185.47 44.192 186.694 44.192ZM226.033 20.288V47H222.721V43.976C221.953 45.032 220.981 45.836 219.805 46.388C218.629 46.94 217.333 47.216 215.917 47.216C214.069 47.216 212.413 46.808 210.949 45.992C209.485 45.176 208.333 44.036 207.493 42.572C206.677 41.084 206.269 39.38 206.269 37.46C206.269 35.54 206.677 33.848 207.493 32.384C208.333 30.92 209.485 29.78 210.949 28.964C212.413 28.148 214.069 27.74 215.917 27.74C217.285 27.74 218.545 28.004 219.697 28.532C220.849 29.036 221.809 29.792 222.577 30.8V20.288H226.033ZM216.205 44.192C217.405 44.192 218.497 43.916 219.481 43.364C220.465 42.788 221.233 41.996 221.785 40.988C222.337 39.956 222.613 38.78 222.613 37.46C222.613 36.14 222.337 34.976 221.785 33.968C221.233 32.936 220.465 32.144 219.481 31.592C218.497 31.04 217.405 30.764 216.205 30.764C214.981 30.764 213.877 31.04 212.893 31.592C211.933 32.144 211.165 32.936 210.589 33.968C210.037 34.976 209.761 36.14 209.761 37.46C209.761 38.78 210.037 39.956 210.589 40.988C211.165 41.996 211.933 42.788 212.893 43.364C213.877 43.916 214.981 44.192 216.205 44.192ZM246.18 27.74C248.82 27.74 250.836 28.388 252.228 29.684C253.644 30.98 254.352 32.912 254.352 35.48V47H251.076V44.48C250.5 45.368 249.672 46.052 248.592 46.532C247.536 46.988 246.276 47.216 244.812 47.216C242.676 47.216 240.96 46.7 239.664 45.668C238.392 44.636 237.756 43.28 237.756 41.6C237.756 39.92 238.368 38.576 239.592 37.568C240.816 36.536 242.76 36.02 245.424 36.02H250.896V35.336C250.896 33.848 250.464 32.708 249.6 31.916C248.736 31.124 247.464 30.728 245.784 30.728C244.656 30.728 243.552 30.92 242.472 31.304C241.392 31.664 240.48 32.156 239.736 32.78L238.296 30.188C239.28 29.396 240.456 28.796 241.824 28.388C243.192 27.956 244.644 27.74 246.18 27.74ZM245.388 44.552C246.708 44.552 247.848 44.264 248.808 43.688C249.768 43.088 250.464 42.248 250.896 41.168V38.504H245.568C242.64 38.504 241.176 39.488 241.176 41.456C241.176 42.416 241.548 43.172 242.292 43.724C243.036 44.276 244.068 44.552 245.388 44.552Z" fill="#ffffff"/>
</svg>
